<svg viewBox="0 0 22 45" fill="none" xmlns="http://www.w3.org/2000/svg">
<path fill-rule="evenodd" clip-rule="evenodd" d="M0 45H17.5441C18.7756 45 19.7739 43.9916 19.7739 42.7476C19.7739 41.5037 18.7756 40.4953 17.5441 40.4953H15.3142V23.8804C15.4469 23.832 15.5807 23.7809 15.7154 23.7266C18.2563 22.7022 21.2317 20.5104 21.9684 16.1195C22.1794 14.8614 21.3138 13.6264 19.9973 13.478C15.1787 12.9351 11.6689 11.8755 8.87344 10.0357C6.09821 8.20934 3.82559 5.48061 1.71909 1.23636C1.3549 0.502526 0.695622 0.0903743 0 0V7.22505C1.82912 9.98253 3.92009 12.1523 6.43893 13.8101C9.37224 15.7405 12.7522 16.888 16.7059 17.563C16.0327 18.5256 15.0768 19.1338 14.0622 19.5428C13.0617 19.9462 11.9593 20.1922 10.8792 20.2233L0 20.2236V24.7287H4.16519V40.4953H0V45ZM8.62481 24.7287H10.8546V40.4953H8.62481V24.7287Z" fill="#00D471"/>
</svg>
