<svg width="22" height="45" viewBox="0 0 22 45" fill="none" xmlns="http://www.w3.org/2000/svg">
<path fill-rule="evenodd" clip-rule="evenodd" d="M0 44.5493H17.544C18.7755 44.5493 19.7738 43.551 19.7738 42.3195C19.7738 41.088 18.7755 40.0897 17.544 40.0897H15.3142V23.6412C15.4469 23.5933 15.5807 23.5427 15.7153 23.4889C18.2562 22.4748 21.2317 20.305 21.9684 15.958C22.1793 14.7125 21.3137 13.4899 19.9972 13.343C15.1786 12.8056 11.6689 11.7566 8.87338 9.93522C6.09816 8.12711 3.82554 5.42571 1.71903 1.22397C1.35486 0.497505 0.695602 0.0894832 0 0V7.15276C1.82911 9.88258 3.92006 12.0306 6.43888 13.6717C9.37219 15.5828 12.7521 16.7188 16.7058 17.3871C16.0326 18.3401 15.0767 18.9421 14.0622 19.3471C13.0616 19.7464 11.9592 19.9899 10.8791 20.0207L0 20.021V24.481H4.16514V40.0897H0V44.5493ZM8.62476 24.481H10.8546V40.0897H8.62476V24.481Z" fill="#00D471"/>
</svg>
