<svg width="12" height="12" viewBox="0 0 12 12" fill="none" xmlns="http://www.w3.org/2000/svg">
<path d="M11.8495 11.1021L8.93893 8.12843C8.89084 8.0793 8.83558 8.04206 8.77662 8.01648C9.40192 7.17741 9.77322 6.12994 9.77322 4.99367C9.77322 2.23541 7.58544 0 4.88656 0C2.1877 0 0 2.23542 0 4.99367C0 7.75199 2.1877 9.98735 4.88658 9.98735C6.12525 9.98735 7.25623 9.51644 8.11749 8.74025C8.14132 8.78794 8.17265 8.83269 8.21167 8.87256L11.1215 11.8462C11.3222 12.0513 11.6482 12.0513 11.8495 11.8462C12.0502 11.6411 12.0502 11.3071 11.8495 11.1021ZM4.88658 9.19927C2.614 9.19927 0.771201 7.3162 0.771201 4.99367C0.771201 2.67043 2.61398 0.788148 4.88658 0.788148C7.15924 0.788148 9.00195 2.67043 9.00195 4.99367C9.00195 7.3162 7.15922 9.19927 4.88658 9.19927Z" fill="white"/>
</svg>
